# xmcd
#
# Track frame offsets:
#	150
#	15588
#	41125
#	60188
#	81513
#	98438
#	114563
#	133275
#	148400
#	163925
#	182863
#
# Disc length: 2648 seconds
#
# Revision: 1
# Processed by: cddbd v1.5.2PL0 Copyright (c) Steve Scherf et al.
# Submitted via: EZCDAudioConverter 1.0.8.1
#
DISCID=9b0a560b
DTITLE=張衛健 - 出位
DYEAR=1993
DGENRE=Blues
TTITLE0=出位
TTITLE1=你的背影
TTITLE2=無需再一起
TTITLE3=終生情人
TTITLE4=愛我吧
TTITLE5=讓我講聲 I Love You
TTITLE6=寂寞伴侶
TTITLE7=你永遠都最重要
TTITLE8=癡情
TTITLE9=誰愛著我
TTITLE10=命運鬥士
EXTD=
EXTT0=
EXTT1=
EXTT2=
EXTT3=
EXTT4=
EXTT5=
EXTT6=
EXTT7=
EXTT8=
EXTT9=
EXTT10=
PLAYORDER=
